ffmpeg started on 2026-01-20 at 13:42:55
Report written to "D:\Convert\FFMetrics\reports\psnr_report-6.txt"
Log level: 32
Command line:
ffmpeg -hide_banner -nostdin -r 24000/1001 -i "F:\\Convert\\files\\[DC] Make Heroine ga Oosugiru - 07_Telegram_HEVC(198).mkv" -r 24000/1001 -i "F:\\Convert\\files\\[DC] Make Heroine ga Oosugiru - 07_Telegram.mp4" -lavfi "[0:v]settb=AVTB,setpts=PTS-STARTPTS,format=pix_fmts=yuv420p10le,fps=24000/1001,scale=1920:1080:flags=lanczos:param0=3:out_range=limited:out_color_matrix=bt709:out_chroma_loc=left,setsar=1/1,setdar=(1920/1080)*(1/1),colorspace=format=yuv420p10:range=tv:primaries=bt709:trc=bt709:space=bt709:fast=0[main];[1:v]settb=AVTB,setpts=PTS-STARTPTS,format=pix_fmts=yuv420p,fps=24000/1001,scale=1920:1080:flags=lanczos:param0=3:out_range=limited:out_color_matrix=bt709:out_chroma_loc=left,setsar=1.000,setdar=1.778,colorspace=format=yuv420p:range=tv:primaries=bt709:trc=bt709:space=bt709:fast=0[ref];[main][ref]psnr=eof_action=endall:stats_file='D\\:/Convert/FFMetrics/logs/psnr_logfile-6.txt'" -f null -
Input #0, matroska,webm, from 'F:\Convert\files\[DC] Make Heroine ga Oosugiru - 07_Telegram_HEVC(198).mkv':
  Metadata:
    COMPATIBLE_BRANDS: isomiso2avc1mp41
    MAJOR_BRAND     : isom
    MINOR_VERSION   : 512
    ENCODER         : Lavf61.7.100
  Duration: 00:24:06.79, start: -0.021000, bitrate: 967 kb/s
  Stream #0:0: Video: hevc (Main 10), yuv420p10le(tv, bt709, progressive), 1920x1080 [SAR 1:1 DAR 16:9], 23.98 fps, 23.98 tbr, 1k tbn (default)
      Metadata:
        HANDLER_NAME    : VideoHandler
        VENDOR_ID       : [0][0][0][0]
        ENCODER         : Lavc61.19.100 libx265
        BPS             : 770680
        DURATION        : 00:24:06.569708333
        NUMBER_OF_FRAMES: 34683
        NUMBER_OF_BYTES : 139355349
        _STATISTICS_WRITING_APP: mkvpropedit v94.0 ('Initiate') 64-bit
        _STATISTICS_WRITING_DATE_UTC: 2026-01-19 16:48:35
        _STATISTICS_TAGS: BPS DURATION NUMBER_OF_FRAMES NUMBER_OF_BYTES
  Stream #0:1: Audio: aac (LC), 48000 Hz, stereo, fltp (default)
      Metadata:
        HANDLER_NAME    : SoundHandler
        VENDOR_ID       : [0][0][0][0]
        ENCODER         : Lavc61.19.100 aac
        BPS             : 193194
        DURATION        : 00:24:06.784000000
        NUMBER_OF_FRAMES: 67819
        NUMBER_OF_BYTES : 34938755
        _STATISTICS_WRITING_APP: mkvpropedit v94.0 ('Initiate') 64-bit
        _STATISTICS_WRITING_DATE_UTC: 2026-01-19 16:48:35
        _STATISTICS_TAGS: BPS DURATION NUMBER_OF_FRAMES NUMBER_OF_BYTES
Input #1, mov,mp4,m4a,3gp,3g2,mj2, from 'F:\Convert\files\[DC] Make Heroine ga Oosugiru - 07_Telegram.mp4':
  Metadata:
    major_brand     : isom
    minor_version   : 512
    compatible_brands: isomiso2avc1mp41
    encoder         : Lavf60.16.100
  Duration: 00:24:06.74, start: 0.000000, bitrate: 3764 kb/s
  Stream #1:0[0x1](und): Video: h264 (High) (avc1 / 0x31637661), yuv420p(tv, bt709, progressive), 1920x1080 [SAR 1:1 DAR 16:9], 3616 kb/s, 23.98 fps, 23.98 tbr, 24k tbn (default)
      Metadata:
        handler_name    : VideoHandler
        vendor_id       : [0][0][0][0]
        encoder         : Lavc60.31.102 h264_qsv
  Stream #1:1[0x2](und): Audio: aac (HE-AACv2) (mp4a / 0x6134706D), 48000 Hz, stereo, fltp, 144 kb/s (default)
      Metadata:
        handler_name    : SoundHandler
        vendor_id       : [0][0][0][0]
Stream mapping:
  Stream #0:0 (hevc) -> settb:default
  Stream #1:0 (h264) -> settb:default
  psnr:default -> Stream #0:0 (wrapped_avframe)
  Stream #0:1 -> #0:1 (aac (native) -> pcm_s16le (native))
Output #0, null, to 'pipe:':
  Metadata:
    COMPATIBLE_BRANDS: isomiso2avc1mp41
    MAJOR_BRAND     : isom
    MINOR_VERSION   : 512
    encoder         : Lavf61.7.100
  Stream #0:0: Video: wrapped_avframe, yuv420p10le(tv, bt709, progressive), 1920x1080 [SAR 1:1 DAR 16:9], q=2-31, 200 kb/s, 23.98 fps, 23.98 tbn
      Metadata:
        encoder         : Lavc61.19.100 wrapped_avframe
  Stream #0:1: Audio: pcm_s16le, 48000 Hz, stereo, s16, 1536 kb/s (default)
      Metadata:
        HANDLER_NAME    : SoundHandler
        VENDOR_ID       : [0][0][0][0]
        _STATISTICS_TAGS: BPS DURATION NUMBER_OF_FRAMES NUMBER_OF_BYTES
        BPS             : 193194
        DURATION        : 00:24:06.784000000
        NUMBER_OF_FRAMES: 67819
        NUMBER_OF_BYTES : 34938755
        _STATISTICS_WRITING_APP: mkvpropedit v94.0 ('Initiate') 64-bit
        _STATISTICS_WRITING_DATE_UTC: 2026-01-19 16:48:35
        encoder         : Lavc61.19.100 pcm_s16le
frame=  132 fps=0.0 q=-0.0 size=N/A time=00:00:05.50 bitrate=N/A speed=10.7x    frame=  338 fps=323 q=-0.0 size=N/A time=00:00:14.09 bitrate=N/A speed=13.5x    frame=  533 fps=344 q=-0.0 size=N/A time=00:00:22.23 bitrate=N/A speed=14.3x    frame=  748 fps=360 q=-0.0 size=N/A time=00:00:31.19 bitrate=N/A speed=  15x    frame=  919 fps=355 q=-0.0 size=N/A time=00:00:38.32 bitrate=N/A speed=14.8x    frame= 1073 fps=346 q=-0.0 size=N/A time=00:00:44.75 bitrate=N/A speed=14.4x    frame= 1228 fps=340 q=-0.0 size=N/A time=00:00:51.21 bitrate=N/A speed=14.2x    frame= 1394 fps=337 q=-0.0 size=N/A time=00:00:58.14 bitrate=N/A speed=14.1x    frame= 1542 fps=332 q=-0.0 size=N/A time=00:01:04.31 bitrate=N/A speed=13.8x    frame= 1693 fps=327 q=-0.0 size=N/A time=00:01:10.61 bitrate=N/A speed=13.7x    frame= 1861 fps=328 q=-0.0 size=N/A time=00:01:17.61 bitrate=N/A speed=13.7x    frame= 2030 fps=328 q=-0.0 size=N/A time=00:01:24.66 bitrate=N/A speed=13.7x    frame= 2134 fps=318 q=-0.0 size=N/A time=00:01:29.00 bitrate=N/A speed=13.3x    frame= 2288 fps=316 q=-0.0 size=N/A time=00:01:35.42 bitrate=N/A speed=13.2x    frame= 2439 fps=315 q=-0.0 size=N/A time=00:01:41.72 bitrate=N/A speed=13.1x    frame= 2566 fps=311 q=-0.0 size=N/A time=00:01:47.02 bitrate=N/A speed=  13x    frame= 2741 fps=313 q=-0.0 size=N/A time=00:01:54.32 bitrate=N/A speed=  13x    frame= 2915 fps=314 q=-0.0 size=N/A time=00:02:01.57 bitrate=N/A speed=13.1x    frame= 3102 fps=316 q=-0.0 size=N/A time=00:02:09.37 bitrate=N/A speed=13.2x    frame= 3286 fps=319 q=-0.0 size=N/A time=00:02:17.05 bitrate=N/A speed=13.3x    frame= 3483 fps=321 q=-0.0 size=N/A time=00:02:25.27 bitrate=N/A speed=13.4x    frame= 3688 fps=325 q=-0.0 size=N/A time=00:02:33.82 bitrate=N/A speed=13.5x    frame= 3882 fps=327 q=-0.0 size=N/A time=00:02:41.91 bitrate=N/A speed=13.6x    frame= 4088 fps=330 q=-0.0 size=N/A time=00:02:50.50 bitrate=N/A speed=13.8x    frame= 4284 fps=332 q=-0.0 size=N/A time=00:02:58.67 bitrate=N/A speed=13.9x    frame= 4476 fps=334 q=-0.0 size=N/A time=00:03:06.68 bitrate=N/A speed=13.9x    frame= 4672 fps=335 q=-0.0 size=N/A time=00:03:14.86 bitrate=N/A speed=  14x    frame= 4873 fps=337 q=-0.0 size=N/A time=00:03:23.24 bitrate=N/A speed=14.1x    frame= 5067 fps=339 q=-0.0 size=N/A time=00:03:31.33 bitrate=N/A speed=14.1x    frame= 5255 fps=340 q=-0.0 size=N/A time=00:03:39.17 bitrate=N/A speed=14.2x    frame= 5454 fps=341 q=-0.0 size=N/A time=00:03:47.47 bitrate=N/A speed=14.2x    frame= 5648 fps=342 q=-0.0 size=N/A time=00:03:55.56 bitrate=N/A speed=14.3x    frame= 5846 fps=344 q=-0.0 size=N/A time=00:04:03.82 bitrate=N/A speed=14.3x    frame= 6043 fps=345 q=-0.0 size=N/A time=00:04:12.04 bitrate=N/A speed=14.4x    frame= 6235 fps=345 q=-0.0 size=N/A time=00:04:20.05 bitrate=N/A speed=14.4x    frame= 6420 fps=346 q=-0.0 size=N/A time=00:04:27.76 bitrate=N/A speed=14.4x    frame= 6622 fps=347 q=-0.0 size=N/A time=00:04:36.19 bitrate=N/A speed=14.5x    frame= 6812 fps=348 q=-0.0 size=N/A time=00:04:44.11 bitrate=N/A speed=14.5x    frame= 6999 fps=348 q=-0.0 size=N/A time=00:04:51.91 bitrate=N/A speed=14.5x    frame= 7190 fps=348 q=-0.0 size=N/A time=00:04:59.88 bitrate=N/A speed=14.5x    frame= 7375 fps=349 q=-0.0 size=N/A time=00:05:07.59 bitrate=N/A speed=14.5x    frame= 7560 fps=349 q=-0.0 size=N/A time=00:05:15.31 bitrate=N/A speed=14.6x    frame= 7749 fps=349 q=-0.0 size=N/A time=00:05:23.19 bitrate=N/A speed=14.6x    frame= 7934 fps=350 q=-0.0 size=N/A time=00:05:30.91 bitrate=N/A speed=14.6x    frame= 8124 fps=350 q=-0.0 size=N/A time=00:05:38.83 bitrate=N/A speed=14.6x    frame= 8315 fps=350 q=-0.0 size=N/A time=00:05:46.80 bitrate=N/A speed=14.6x    frame= 8511 fps=351 q=-0.0 size=N/A time=00:05:54.97 bitrate=N/A speed=14.6x    frame= 8702 fps=352 q=-0.0 size=N/A time=00:06:02.94 bitrate=N/A speed=14.7x    frame= 8899 fps=352 q=-0.0 size=N/A time=00:06:11.16 bitrate=N/A speed=14.7x    frame= 9090 fps=352 q=-0.0 size=N/A time=00:06:19.12 bitrate=N/A speed=14.7x    frame= 9286 fps=353 q=-0.0 size=N/A time=00:06:27.30 bitrate=N/A speed=14.7x    frame= 9477 fps=353 q=-0.0 size=N/A time=00:06:35.26 bitrate=N/A speed=14.7x    frame= 9672 fps=354 q=-0.0 size=N/A time=00:06:43.40 bitrate=N/A speed=14.8x    frame= 9871 fps=354 q=-0.0 size=N/A time=00:06:51.70 bitrate=N/A speed=14.8x    frame=10058 fps=355 q=-0.0 size=N/A time=00:06:59.50 bitrate=N/A speed=14.8x    frame=10257 fps=355 q=-0.0 size=N/A time=00:07:07.80 bitrate=N/A speed=14.8x    frame=10457 fps=355 q=-0.0 size=N/A time=00:07:16.14 bitrate=N/A speed=14.8x    frame=10642 fps=356 q=-0.0 size=N/A time=00:07:23.86 bitrate=N/A speed=14.8x    frame=10835 fps=356 q=-0.0 size=N/A time=00:07:31.90 bitrate=N/A speed=14.8x    frame=11029 fps=356 q=-0.0 size=N/A time=00:07:40.00 bitrate=N/A speed=14.9x    frame=11214 fps=356 q=-0.0 size=N/A time=00:07:47.71 bitrate=N/A speed=14.9x    frame=11406 fps=357 q=-0.0 size=N/A time=00:07:55.72 bitrate=N/A speed=14.9x    frame=11595 fps=357 q=-0.0 size=N/A time=00:08:03.60 bitrate=N/A speed=14.9x    frame=11794 fps=357 q=-0.0 size=N/A time=00:08:11.90 bitrate=N/A speed=14.9x    frame=11982 fps=357 q=-0.0 size=N/A time=00:08:19.74 bitrate=N/A speed=14.9x    frame=12175 fps=358 q=-0.0 size=N/A time=00:08:27.79 bitrate=N/A speed=14.9x    frame=12370 fps=358 q=-0.0 size=N/A time=00:08:35.93 bitrate=N/A speed=14.9x    frame=12558 fps=358 q=-0.0 size=N/A time=00:08:43.77 bitrate=N/A speed=14.9x    frame=12755 fps=358 q=-0.0 size=N/A time=00:08:51.98 bitrate=N/A speed=14.9x    frame=12953 fps=359 q=-0.0 size=N/A time=00:09:00.24 bitrate=N/A speed=  15x    frame=13152 fps=359 q=-0.0 size=N/A time=00:09:08.54 bitrate=N/A speed=  15x    frame=13346 fps=359 q=-0.0 size=N/A time=00:09:16.63 bitrate=N/A speed=  15x    frame=13531 fps=359 q=-0.0 size=N/A time=00:09:24.35 bitrate=N/A speed=  15x    frame=13719 fps=359 q=-0.0 size=N/A time=00:09:32.19 bitrate=N/A speed=  15x    frame=13908 fps=359 q=-0.0 size=N/A time=00:09:40.07 bitrate=N/A speed=  15x    frame=14091 fps=359 q=-0.0 size=N/A time=00:09:47.71 bitrate=N/A speed=  15x    frame=14259 fps=359 q=-0.0 size=N/A time=00:09:54.71 bitrate=N/A speed=  15x    frame=14444 fps=359 q=-0.0 size=N/A time=00:10:02.43 bitrate=N/A speed=  15x    frame=14637 fps=359 q=-0.0 size=N/A time=00:10:10.48 bitrate=N/A speed=  15x    frame=14829 fps=359 q=-0.0 size=N/A time=00:10:18.49 bitrate=N/A speed=  15x    frame=15016 fps=359 q=-0.0 size=N/A time=00:10:26.29 bitrate=N/A speed=  15x    frame=15173 fps=359 q=-0.0 size=N/A time=00:10:32.84 bitrate=N/A speed=  15x    frame=15364 fps=359 q=-0.0 size=N/A time=00:10:40.80 bitrate=N/A speed=  15x    frame=15561 fps=359 q=-0.0 size=N/A time=00:10:49.02 bitrate=N/A speed=  15x    frame=15753 fps=359 q=-0.0 size=N/A time=00:10:57.03 bitrate=N/A speed=  15x    frame=15948 fps=359 q=-0.0 size=N/A time=00:11:05.16 bitrate=N/A speed=  15x    frame=16144 fps=360 q=-0.0 size=N/A time=00:11:13.33 bitrate=N/A speed=  15x    frame=16331 fps=360 q=-0.0 size=N/A time=00:11:21.13 bitrate=N/A speed=  15x    frame=16520 fps=360 q=-0.0 size=N/A time=00:11:29.02 bitrate=N/A speed=  15x    frame=16711 fps=360 q=-0.0 size=N/A time=00:11:36.98 bitrate=N/A speed=  15x    frame=16890 fps=360 q=-0.0 size=N/A time=00:11:44.45 bitrate=N/A speed=  15x    frame=17098 fps=360 q=-0.0 size=N/A time=00:11:53.12 bitrate=N/A speed=  15x    frame=17289 fps=360 q=-0.0 size=N/A time=00:12:01.09 bitrate=N/A speed=  15x    frame=17486 fps=361 q=-0.0 size=N/A time=00:12:09.31 bitrate=N/A speed=  15x    frame=17677 fps=361 q=-0.0 size=N/A time=00:12:17.27 bitrate=N/A speed=  15x    frame=17869 fps=361 q=-0.0 size=N/A time=00:12:25.28 bitrate=N/A speed=  15x    frame=18057 fps=361 q=-0.0 size=N/A time=00:12:33.12 bitrate=N/A speed=15.1x    frame=18237 fps=361 q=-0.0 size=N/A time=00:12:40.63 bitrate=N/A speed=  15x    frame=18427 fps=361 q=-0.0 size=N/A time=00:12:48.55 bitrate=N/A speed=  15x    frame=18623 fps=361 q=-0.0 size=N/A time=00:12:56.73 bitrate=N/A speed=15.1x    frame=18810 fps=361 q=-0.0 size=N/A time=00:13:04.53 bitrate=N/A speed=15.1x    frame=19008 fps=361 q=-0.0 size=N/A time=00:13:12.79 bitrate=N/A speed=15.1x    frame=19209 fps=362 q=-0.0 size=N/A time=00:13:21.17 bitrate=N/A speed=15.1x    frame=19406 fps=362 q=-0.0 size=N/A time=00:13:29.39 bitrate=N/A speed=15.1x    frame=19609 fps=362 q=-0.0 size=N/A time=00:13:37.85 bitrate=N/A speed=15.1x    frame=19802 fps=362 q=-0.0 size=N/A time=00:13:45.90 bitrate=N/A speed=15.1x    frame=19997 fps=362 q=-0.0 size=N/A time=00:13:54.04 bitrate=N/A speed=15.1x    frame=20203 fps=363 q=-0.0 size=N/A time=00:14:02.63 bitrate=N/A speed=15.1x    frame=20389 fps=363 q=-0.0 size=N/A time=00:14:10.39 bitrate=N/A speed=15.1x    frame=20580 fps=363 q=-0.0 size=N/A time=00:14:18.35 bitrate=N/A speed=15.1x    frame=20774 fps=363 q=-0.0 size=N/A time=00:14:26.44 bitrate=N/A speed=15.1x    frame=20972 fps=363 q=-0.0 size=N/A time=00:14:34.70 bitrate=N/A speed=15.1x    frame=21163 fps=363 q=-0.0 size=N/A time=00:14:42.67 bitrate=N/A speed=15.1x    frame=21364 fps=363 q=-0.0 size=N/A time=00:14:51.05 bitrate=N/A speed=15.1x    frame=21561 fps=363 q=-0.0 size=N/A time=00:14:59.27 bitrate=N/A speed=15.2x    frame=21759 fps=364 q=-0.0 size=N/A time=00:15:07.53 bitrate=N/A speed=15.2x    frame=21964 fps=364 q=-0.0 size=N/A time=00:15:16.08 bitrate=N/A speed=15.2x    frame=22158 fps=364 q=-0.0 size=N/A time=00:15:24.17 bitrate=N/A speed=15.2x    frame=22354 fps=364 q=-0.0 size=N/A time=00:15:32.34 bitrate=N/A speed=15.2x    frame=22552 fps=364 q=-0.0 size=N/A time=00:15:40.60 bitrate=N/A speed=15.2x    frame=22741 fps=364 q=-0.0 size=N/A time=00:15:48.48 bitrate=N/A speed=15.2x    frame=22931 fps=364 q=-0.0 size=N/A time=00:15:56.41 bitrate=N/A speed=15.2x    frame=23128 fps=364 q=-0.0 size=N/A time=00:16:04.63 bitrate=N/A speed=15.2x    frame=23320 fps=365 q=-0.0 size=N/A time=00:16:12.63 bitrate=N/A speed=15.2x    frame=23518 fps=365 q=-0.0 size=N/A time=00:16:20.89 bitrate=N/A speed=15.2x    frame=23712 fps=365 q=-0.0 size=N/A time=00:16:28.98 bitrate=N/A speed=15.2x    frame=23904 fps=365 q=-0.0 size=N/A time=00:16:36.99 bitrate=N/A speed=15.2x    frame=24102 fps=365 q=-0.0 size=N/A time=00:16:45.25 bitrate=N/A speed=15.2x    frame=24285 fps=365 q=-0.0 size=N/A time=00:16:52.88 bitrate=N/A speed=15.2x    frame=24478 fps=365 q=-0.0 size=N/A time=00:17:00.93 bitrate=N/A speed=15.2x    frame=24673 fps=365 q=-0.0 size=N/A time=00:17:09.06 bitrate=N/A speed=15.2x    frame=24868 fps=365 q=-0.0 size=N/A time=00:17:17.20 bitrate=N/A speed=15.2x    frame=25066 fps=365 q=-0.0 size=N/A time=00:17:25.46 bitrate=N/A speed=15.2x    frame=25256 fps=365 q=-0.0 size=N/A time=00:17:33.38 bitrate=N/A speed=15.2x    frame=25454 fps=366 q=-0.0 size=N/A time=00:17:41.64 bitrate=N/A speed=15.2x    frame=25647 fps=366 q=-0.0 size=N/A time=00:17:49.69 bitrate=N/A speed=15.2x    frame=25836 fps=366 q=-0.0 size=N/A time=00:17:57.57 bitrate=N/A speed=15.2x    frame=26028 fps=366 q=-0.0 size=N/A time=00:18:05.58 bitrate=N/A speed=15.2x    frame=26232 fps=366 q=-0.0 size=N/A time=00:18:14.09 bitrate=N/A speed=15.3x    frame=26421 fps=366 q=-0.0 size=N/A time=00:18:21.97 bitrate=N/A speed=15.3x    frame=26621 fps=366 q=-0.0 size=N/A time=00:18:30.31 bitrate=N/A speed=15.3x    frame=26820 fps=366 q=-0.0 size=N/A time=00:18:38.61 bitrate=N/A speed=15.3x    frame=26999 fps=366 q=-0.0 size=N/A time=00:18:46.08 bitrate=N/A speed=15.3x    frame=27185 fps=366 q=-0.0 size=N/A time=00:18:53.84 bitrate=N/A speed=15.3x    frame=27372 fps=366 q=-0.0 size=N/A time=00:19:01.64 bitrate=N/A speed=15.3x    frame=27563 fps=366 q=-0.0 size=N/A time=00:19:09.60 bitrate=N/A speed=15.3x    frame=27752 fps=366 q=-0.0 size=N/A time=00:19:17.48 bitrate=N/A speed=15.3x    frame=27945 fps=366 q=-0.0 size=N/A time=00:19:25.53 bitrate=N/A speed=15.3x    frame=28138 fps=366 q=-0.0 size=N/A time=00:19:33.58 bitrate=N/A speed=15.3x    frame=28332 fps=366 q=-0.0 size=N/A time=00:19:41.68 bitrate=N/A speed=15.3x    frame=28531 fps=366 q=-0.0 size=N/A time=00:19:49.98 bitrate=N/A speed=15.3x    frame=28716 fps=366 q=-0.0 size=N/A time=00:19:57.69 bitrate=N/A speed=15.3x    frame=28889 fps=366 q=-0.0 size=N/A time=00:20:04.91 bitrate=N/A speed=15.3x    frame=29053 fps=366 q=-0.0 size=N/A time=00:20:11.75 bitrate=N/A speed=15.2x    frame=29239 fps=366 q=-0.0 size=N/A time=00:20:19.50 bitrate=N/A speed=15.2x    frame=29419 fps=365 q=-0.0 size=N/A time=00:20:27.01 bitrate=N/A speed=15.2x    frame=29590 fps=365 q=-0.0 size=N/A time=00:20:34.14 bitrate=N/A speed=15.2x    frame=29766 fps=365 q=-0.0 size=N/A time=00:20:41.49 bitrate=N/A speed=15.2x    frame=29937 fps=365 q=-0.0 size=N/A time=00:20:48.62 bitrate=N/A speed=15.2x    frame=30109 fps=365 q=-0.0 size=N/A time=00:20:55.79 bitrate=N/A speed=15.2x    frame=30296 fps=365 q=-0.0 size=N/A time=00:21:03.59 bitrate=N/A speed=15.2x    frame=30492 fps=365 q=-0.0 size=N/A time=00:21:11.77 bitrate=N/A speed=15.2x    frame=30688 fps=365 q=-0.0 size=N/A time=00:21:19.94 bitrate=N/A speed=15.2x    frame=30883 fps=365 q=-0.0 size=N/A time=00:21:28.07 bitrate=N/A speed=15.2x    frame=31076 fps=365 q=-0.0 size=N/A time=00:21:36.12 bitrate=N/A speed=15.2x    frame=31269 fps=365 q=-0.0 size=N/A time=00:21:44.17 bitrate=N/A speed=15.2x    frame=31460 fps=365 q=-0.0 size=N/A time=00:21:52.14 bitrate=N/A speed=15.2x    frame=31652 fps=365 q=-0.0 size=N/A time=00:22:00.15 bitrate=N/A speed=15.2x    frame=31833 fps=365 q=-0.0 size=N/A time=00:22:07.70 bitrate=N/A speed=15.2x    frame=32013 fps=365 q=-0.0 size=N/A time=00:22:15.20 bitrate=N/A speed=15.2x    frame=32209 fps=365 q=-0.0 size=N/A time=00:22:23.38 bitrate=N/A speed=15.2x    frame=32397 fps=365 q=-0.0 size=N/A time=00:22:31.22 bitrate=N/A speed=15.2x    frame=32592 fps=365 q=-0.0 size=N/A time=00:22:39.35 bitrate=N/A speed=15.2x    frame=32742 fps=365 q=-0.0 size=N/A time=00:22:45.61 bitrate=N/A speed=15.2x    frame=32904 fps=364 q=-0.0 size=N/A time=00:22:52.37 bitrate=N/A speed=15.2x    frame=33092 fps=364 q=-0.0 size=N/A time=00:23:00.21 bitrate=N/A speed=15.2x    frame=33274 fps=364 q=-0.0 size=N/A time=00:23:07.80 bitrate=N/A speed=15.2x    frame=33446 fps=364 q=-0.0 size=N/A time=00:23:14.97 bitrate=N/A speed=15.2x    frame=33600 fps=364 q=-0.0 size=N/A time=00:23:21.40 bitrate=N/A speed=15.2x    frame=33743 fps=363 q=-0.0 size=N/A time=00:23:27.36 bitrate=N/A speed=15.1x    frame=33863 fps=363 q=-0.0 size=N/A time=00:23:32.36 bitrate=N/A speed=15.1x    frame=34020 fps=362 q=-0.0 size=N/A time=00:23:38.91 bitrate=N/A speed=15.1x    frame=34188 fps=362 q=-0.0 size=N/A time=00:23:45.92 bitrate=N/A speed=15.1x    frame=34332 fps=361 q=-0.0 size=N/A time=00:23:51.93 bitrate=N/A speed=15.1x    frame=34464 fps=361 q=-0.0 size=N/A time=00:23:57.43 bitrate=N/A speed=15.1x    frame=34645 fps=361 q=-0.0 size=N/A time=00:24:04.98 bitrate=N/A speed=  15x    [Parsed_psnr_16 @ 000001dd2644ce00] PSNR y:48.998825 u:50.355453 v:50.400068 average:49.411645 min:37.978426 max:inf
[out#0/null @ 000001dd1881fe80] video:14903KiB audio:271276KiB subtitle:0KiB other streams:0KiB global headers:0KiB muxing overhead: unknown
frame=34683 fps=361 q=-0.0 Lsize=N/A time=00:24:06.57 bitrate=N/A speed=15.1x    
